<svg width="104" height="104" viewBox="0 0 104 104" fill="none" xmlns="http://www.w3.org/2000/svg">
<g filter="url(#filter0_b_301_39)">
<circle cx="52" cy="52" r="52" fill="white" fill-opacity="0.05"/>
<circle cx="52" cy="52" r="51.5" stroke="#09BB25"/>
</g>
<g clip-path="url(#clip0_301_39)">
<path d="M57.4017 48.9239L60.9982 42.8215L70.692 57.92L70.6965 60.8174L70.6649 40.8786C70.642 40.3912 70.3831 39.9453 69.9702 39.6824L52.5178 29.6435C52.1096 29.4429 51.5918 29.445 51.1844 29.6498C51.1293 29.6774 51.0775 29.7074 51.0281 29.74L50.9673 29.7783L34.0269 39.5952L33.9611 39.625C33.8766 39.6639 33.7912 39.7133 33.711 39.7707C33.3898 40.0011 33.1765 40.3417 33.1075 40.7238C33.0971 40.7817 33.0895 40.8406 33.0859 40.9001L33.1125 57.1482L42.1418 43.1533C43.2786 41.2975 45.7555 40.6998 48.0547 40.7323L50.7534 40.8036L34.8531 66.3031L36.7274 67.3823L52.8182 40.8294L59.9304 40.8036L43.881 68.0265L50.5692 71.8733L51.3682 72.3329C51.7062 72.4703 52.1047 72.4771 52.4456 72.3542L70.1433 62.0981L66.7597 64.0587L57.4017 48.9239ZM58.7739 68.6867L52.0187 58.0846L56.1423 51.0873L65.0138 65.0704L58.7739 68.6867Z" fill="#2D374B"/>
<path d="M52.0187 58.0842L58.7739 68.6863L65.014 65.07L56.1424 51.0869L52.0187 58.0842Z" fill="#28A0F0"/>
<path d="M70.6965 60.8172L70.6919 57.9198L60.9982 42.8213L57.4017 48.9237L66.7597 64.0585L70.1433 62.0979C70.4752 61.8284 70.676 61.4328 70.6971 61.0059L70.6965 60.8172Z" fill="#28A0F0"/>
<path d="M30.0748 63.5498L34.8529 66.303L50.7532 40.8035L48.0546 40.7322C45.7553 40.6997 43.2786 41.2974 42.1417 43.1532L33.1123 57.1482L30.0746 61.8155V63.5498H30.0748Z" fill="white"/>
<path d="M59.9302 40.8032L52.8182 40.8291L36.7274 67.3819L42.3515 70.6202L43.881 68.0262L59.9302 40.8032Z" fill="white"/>
<path d="M73.6938 40.7667C73.6344 39.2793 72.8291 37.9176 71.5675 37.1249L53.8863 26.957C52.6385 26.3286 51.0795 26.3278 49.8297 26.9566C49.6819 27.031 32.635 36.9176 32.635 36.9176C32.3991 37.0307 32.1719 37.1655 31.9581 37.3184C30.8319 38.1255 30.1455 39.3797 30.075 40.7576V61.8155L33.1126 57.1482L33.086 40.9C33.0897 40.8406 33.0971 40.7822 33.1076 40.7245C33.1762 40.3421 33.3897 40.0011 33.7111 39.7707C33.7914 39.7132 51.1294 29.6774 51.1845 29.6497C51.5921 29.445 52.1099 29.4429 52.518 29.6435L69.9704 39.6824C70.3833 39.9453 70.6421 40.3912 70.6651 40.8786V61.0061C70.6439 61.433 70.4753 61.8284 70.1433 62.098L66.7597 64.0587L65.014 65.0704L58.7739 68.6866L52.4456 72.3541C52.1047 72.4772 51.7063 72.4704 51.3683 72.3328L43.881 68.0265L42.3515 70.6204L49.0801 74.4944C49.3026 74.6208 49.5009 74.733 49.6636 74.8245C49.9155 74.9658 50.0871 75.0602 50.1477 75.0895C50.626 75.3218 51.314 75.457 51.9341 75.457C52.5026 75.457 53.0569 75.3526 53.5815 75.1471L71.9622 64.5023C73.0172 63.685 73.6379 62.4523 73.6938 61.1169V40.7667Z" fill="#96BEDC"/>
</g>
<defs>
<filter id="filter0_b_301_39" x="-45" y="-45" width="194" height="194" filterUnits="userSpaceOnUse" color-interpolation-filters="sRGB">
<feFlood flood-opacity="0" result="BackgroundImageFix"/>
<feGaussianBlur in="BackgroundImageFix" stdDeviation="22.5"/>
<feComposite in2="SourceAlpha" operator="in" result="effect1_backgroundBlur_301_39"/>
<feBlend mode="normal" in="SourceGraphic" in2="effect1_backgroundBlur_301_39" result="shape"/>
</filter>
<clipPath id="clip0_301_39">
<rect width="43.769" height="50" fill="white" transform="translate(30 26)"/>
</clipPath>
</defs>
</svg>
