<svg width="237" height="45" viewBox="0 0 237 45" fill="none" xmlns="http://www.w3.org/2000/svg">
<path d="M22.3137 44.6441C17.9005 44.6441 13.5863 43.3349 9.91687 40.8821C6.24741 38.4294 3.38741 34.9431 1.69854 30.8643C0.00966822 26.7855 -0.432217 22.2973 0.428761 17.9672C1.28974 13.6372 3.41491 9.65977 6.53554 6.53798C9.65616 3.41619 13.6321 1.29022 17.9605 0.428922C22.2889 -0.432379 26.7755 0.00967183 30.8528 1.69917C34.9301 3.38867 38.415 6.24975 40.8668 9.92058C43.3187 13.5914 44.6274 17.9072 44.6274 22.322C44.6205 28.2401 42.2674 33.9138 38.0842 38.0985C33.9011 42.2832 28.2295 44.6372 22.3137 44.6441ZM22.3137 4.06093C18.7033 4.06093 15.1741 5.13193 12.1722 7.13848C9.17026 9.14504 6.83056 11.997 5.44894 15.3338C4.06731 18.6706 3.70582 22.3423 4.41016 25.8846C5.11451 29.4269 6.85306 32.6807 9.40597 35.2346C11.9589 37.7885 15.2115 39.5277 18.7525 40.2323C22.2934 40.9369 25.9638 40.5752 29.2993 39.1931C32.6348 37.811 35.4858 35.4704 37.4916 32.4674C39.4974 29.4643 40.568 25.9337 40.568 22.322C40.568 17.4789 38.6448 12.8341 35.2214 9.40949C31.7981 5.98487 27.155 4.06093 22.3137 4.06093Z" fill="#10FF37"/>
<path d="M27.2434 16.3138C26.7275 15.4704 26.0028 14.7744 25.1394 14.293C24.276 13.8116 23.3031 13.5612 22.3147 13.566C21.3263 13.5612 20.3534 13.8116 19.49 14.293C18.6266 14.7744 17.9019 15.4704 17.386 16.3138L9.94525 28.4097H14.7088L20.7935 18.4443C20.9499 18.1946 21.1671 17.9886 21.4248 17.8459C21.6826 17.7032 21.9723 17.6283 22.2669 17.6283C22.5615 17.6283 22.8512 17.7032 23.1089 17.8459C23.3667 17.9886 23.5839 18.1946 23.7403 18.4443L29.8772 28.4097H34.6842L27.2434 16.3138Z" fill="#10FF37"/>
<path d="M69.1592 13.3862L77.8524 30.4908H73.0847L71.0472 26.3526H60.8191L58.7545 30.4908H54.0547L62.7479 13.3862H69.1592ZM65.8992 16.5864L62.5713 22.9455H69.295L66.0894 16.5864H65.8992Z" fill="white"/>
<path d="M85.9285 21.7821L88.588 18.6055H93.1133L88.7829 23.855L94.2133 30.4909H89.6044L86.0677 26.0759L82.4335 30.4909H77.8524L83.1854 23.9761L78.7993 18.592H83.3803L85.9285 21.7821Z" fill="white"/>
<path d="M100.163 16.6745H96.4444V13.3862H100.163V16.6745ZM100.163 30.4908H96.4444V18.3187H100.163V30.4908Z" fill="white"/>
<path d="M106.69 27.2978C106.724 27.4221 106.799 27.531 106.903 27.6063C107.035 27.7165 107.19 27.7945 107.357 27.8342C107.606 27.8949 107.861 27.922 108.117 27.9147H112.508C112.933 27.9595 113.362 27.8704 113.735 27.6599C113.84 27.5781 113.925 27.472 113.98 27.3506C114.036 27.2292 114.062 27.0961 114.055 26.9625C114.06 26.8363 114.035 26.7108 113.981 26.5965C113.928 26.4821 113.848 26.3823 113.749 26.3054C113.372 26.0885 112.94 25.9904 112.508 26.0237L107.17 25.9298C106.596 25.9212 106.024 25.8583 105.462 25.7421C105.009 25.6672 104.58 25.4882 104.208 25.219C103.859 24.9787 103.586 24.6438 103.42 24.2534C103.219 23.7746 103.123 23.2575 103.14 22.7379V22.1612C103.135 21.6516 103.212 21.1445 103.367 20.6592C103.52 20.2246 103.787 19.8399 104.141 19.546C104.563 19.2043 105.055 18.9615 105.582 18.8352C106.312 18.6598 107.06 18.5787 107.811 18.5938H113.148C113.845 18.5861 114.542 18.6399 115.23 18.7548C115.758 18.8235 116.265 19.0115 116.711 19.3046C117.107 19.5694 117.414 19.948 117.592 20.3909C117.805 20.9463 117.905 21.5393 117.885 22.1344H114.162C114.162 21.5175 113.495 21.209 112.174 21.209H108.051C107.658 21.1661 107.262 21.2457 106.916 21.437C106.82 21.5097 106.742 21.6053 106.691 21.7152C106.64 21.8252 106.616 21.9461 106.623 22.0674C106.611 22.1755 106.628 22.2849 106.672 22.3841C106.717 22.4833 106.788 22.5685 106.876 22.6306C107.243 22.7681 107.633 22.8319 108.024 22.8184L113.201 22.9123C113.972 22.9093 114.741 22.9857 115.497 23.1403C116.024 23.2396 116.524 23.4498 116.964 23.7572C117.322 24.0197 117.599 24.3774 117.765 24.7899C117.936 25.2622 118.018 25.7626 118.005 26.2651V26.882C118.036 27.3934 117.943 27.9047 117.734 28.3719C117.524 28.8391 117.206 29.2483 116.804 29.5643C115.75 30.2454 114.505 30.5654 113.255 30.4763H107.624C107.011 30.4787 106.4 30.4294 105.796 30.3288C105.286 30.2426 104.8 30.0508 104.368 29.7655C103.976 29.4834 103.664 29.1046 103.46 28.6658C103.228 28.1199 103.119 27.5291 103.14 26.9357H106.65C106.641 27.0578 106.655 27.1804 106.69 27.2978Z" fill="white"/>
<path d="M141.065 14.8735V18.1299H127.998V21.149H140.661V24.4185H127.998V31.2345H123.96V14.8735H141.065Z" fill="white"/>
<path d="M147.758 18.0189H144.04V14.8735H147.758V18.0189ZM147.758 31.2345H144.04V19.6047H147.758V31.2345Z" fill="white"/>
<path d="M164.89 20.7186C165.396 21.2574 165.786 21.8939 166.036 22.5887C166.285 23.2836 166.388 24.0219 166.338 24.758V31.2346H162.305V25.3909C162.361 24.511 162.075 23.6431 161.506 22.9672C161.139 22.6473 160.708 22.4068 160.242 22.2608C159.776 22.1147 159.285 22.0665 158.799 22.1189H158.244C157.777 22.0846 157.307 22.1444 156.862 22.2947C156.418 22.4451 156.009 22.683 155.659 22.9942C155.359 23.3144 155.128 23.692 154.979 24.104C154.83 24.516 154.767 24.9538 154.793 25.3909V31.2211H150.733V19.3587H154.793V21.0956C154.914 20.8814 155.055 20.6786 155.213 20.4897C155.41 20.2537 155.654 20.0611 155.93 19.9242C156.297 19.7247 156.695 19.5881 157.108 19.5203C157.7 19.401 158.304 19.3468 158.908 19.3587H160.166C161.855 19.221 163.536 19.705 164.89 20.7186Z" fill="white"/>
<path d="M176.303 23.626C177.2 23.626 177.904 23.626 178.442 23.707C178.872 23.754 179.297 23.8353 179.712 23.9501C179.967 24.0242 180.2 24.1587 180.389 24.3417C180.528 24.4937 180.649 24.6614 180.748 24.8414V23.9231C180.755 23.5796 180.704 23.2372 180.596 22.9103C180.508 22.6464 180.339 22.4153 180.113 22.2486C179.845 22.0687 179.537 21.9531 179.215 21.9109C178.758 21.8472 178.297 21.8156 177.835 21.8164H175.254C174.82 21.8096 174.386 21.8367 173.956 21.8974C173.682 21.9236 173.412 21.9872 173.156 22.0865C172.988 22.1445 172.843 22.2533 172.742 22.3971C172.671 22.5261 172.634 22.6696 172.631 22.8157H168.711C168.676 22.3181 168.768 21.8198 168.977 21.365C169.187 20.9103 169.508 20.5133 169.912 20.2094C171.141 19.5432 172.543 19.2472 173.943 19.3586H178.429C179.361 19.3339 180.292 19.4478 181.189 19.6962C181.844 19.878 182.452 20.1958 182.97 20.628C183.397 20.9936 183.725 21.4578 183.922 21.9785C184.11 22.5687 184.203 23.1836 184.198 23.8016V31.2154H180.775V29.865C180.646 30.054 180.522 30.2296 180.402 30.3916C180.227 30.5782 180.01 30.7216 179.768 30.8103C179.38 30.9544 178.977 31.0541 178.567 31.1074C177.875 31.1866 177.179 31.2227 176.482 31.2154H173.722C172.375 31.3121 171.028 31.041 169.829 30.4322C169.396 30.1309 169.054 29.7213 168.838 29.2461C168.621 28.771 168.54 28.2479 168.601 27.7313V27.0561C168.589 26.5302 168.663 26.0058 168.822 25.5031C168.987 25.062 169.274 24.6742 169.65 24.3822C170.126 24.0551 170.667 23.8296 171.237 23.7205C172.065 23.5653 172.907 23.4929 173.749 23.5045L176.303 23.626ZM173.073 28.393C173.517 28.5428 173.984 28.6115 174.453 28.5956H178.387C178.892 28.618 179.396 28.554 179.878 28.4065C180.237 28.285 180.416 27.9609 180.416 27.4612C180.439 27.2718 180.4 27.0804 180.306 26.9134C180.212 26.7465 180.067 26.6123 179.892 26.5294C179.409 26.3633 178.898 26.29 178.387 26.3133H174.453C173.985 26.2946 173.518 26.3587 173.073 26.5024C172.889 26.5828 172.736 26.7201 172.639 26.8932C172.542 27.0663 172.505 27.2658 172.535 27.4612C172.507 27.6529 172.545 27.8482 172.642 28.0167C172.739 28.1852 172.891 28.3175 173.073 28.393Z" fill="white"/>
<path d="M201.249 20.7194C201.786 21.2537 202.199 21.8892 202.462 22.5849C202.725 23.2806 202.832 24.021 202.776 24.7585V31.2346H198.534V25.3913C198.593 24.5115 198.294 23.6437 197.699 22.9678C197.315 22.648 196.866 22.4074 196.379 22.2614C195.892 22.1154 195.379 22.0671 194.871 22.1196H194.263C193.772 22.0857 193.279 22.1457 192.813 22.296C192.347 22.4463 191.917 22.6839 191.548 22.9948C191.243 23.3189 191.008 23.6977 190.857 24.1092C190.707 24.5206 190.644 24.9564 190.672 25.3913V31.2211H186.429V19.3596H190.672V21.0964C190.793 20.8793 190.94 20.6761 191.11 20.4905C191.313 20.2515 191.569 20.0583 191.859 19.925C192.239 19.7277 192.65 19.5912 193.076 19.5211C193.699 19.4026 194.334 19.3485 194.97 19.3596H196.328C198.088 19.2189 199.841 19.7033 201.249 20.7194Z" fill="white"/>
<path d="M219.645 28.9655C219.475 29.4632 219.144 29.8953 218.702 30.1992C218.096 30.5887 217.41 30.8492 216.691 30.9635C215.566 31.1618 214.423 31.2516 213.28 31.2317H211.422C210.236 31.2528 209.051 31.1584 207.885 30.9501C207.091 30.8329 206.338 30.529 205.694 30.0651C205.167 29.6613 204.784 29.108 204.598 28.4828C204.372 27.7158 204.264 26.9204 204.279 26.1228V24.5942C204.263 23.7824 204.375 22.9729 204.612 22.194C204.787 21.5629 205.154 20.9974 205.666 20.5715C206.28 20.1087 206.997 19.7918 207.76 19.6463C208.845 19.4225 209.952 19.319 211.061 19.3379H212.919C214.07 19.3233 215.221 19.3996 216.359 19.5658C217.102 19.6691 217.818 19.9104 218.467 20.2765C218.952 20.5647 219.327 20.9977 219.534 21.5101C219.751 22.0807 219.855 22.6858 219.84 23.2935V23.5349H215.915C215.92 23.3316 215.877 23.1299 215.79 22.9449C215.675 22.7539 215.5 22.6035 215.291 22.5158C214.945 22.3784 214.581 22.2881 214.209 22.2476C213.601 22.1868 212.99 22.16 212.378 22.1672H211.435C210.849 22.1568 210.262 22.2108 209.688 22.3281C209.275 22.4078 208.886 22.5775 208.551 22.8242C208.271 23.0467 208.068 23.3459 207.968 23.6824C207.83 24.1163 207.769 24.5697 207.788 25.0233V25.801C207.751 26.1809 207.806 26.5638 207.948 26.9198C208.09 27.2758 208.315 27.5951 208.606 27.8526C209.466 28.3498 210.466 28.5705 211.463 28.4828H212.448C213.055 28.4871 213.661 28.4558 214.265 28.3889C214.649 28.3463 215.024 28.2421 215.374 28.0805C215.593 27.9909 215.767 27.8226 215.859 27.6112C215.941 27.4062 215.979 27.1872 215.97 26.9676H219.895V27.3296C219.894 27.8837 219.81 28.4348 219.645 28.9655Z" fill="white"/>
<path d="M225.065 31.6475C224.273 31.5042 223.522 31.1789 222.871 30.6962C222.327 30.2725 221.924 29.6874 221.718 29.0209C221.478 28.2112 221.365 27.3678 221.384 26.5221V24.8183C221.371 23.9786 221.478 23.1413 221.704 22.3337C221.9 21.6691 222.287 21.0803 222.815 20.6442C223.419 20.1545 224.129 19.8187 224.885 19.6645C225.943 19.4276 227.024 19.318 228.107 19.338H230.08C231.224 19.3222 232.368 19.4125 233.497 19.6078C234.263 19.7332 234.991 20.0394 235.622 20.5022C236.151 20.9322 236.531 21.5244 236.705 22.1918C236.919 23.0352 237.017 23.9048 236.997 24.7757V26.6073H225.163V27.09C225.153 27.3571 225.202 27.623 225.305 27.8686C225.408 28.1141 225.564 28.3332 225.76 28.5098C226.408 28.9323 227.175 29.1221 227.941 29.0493H230.524C231.038 29.0493 231.455 29.0493 231.802 29.0493C232.077 29.0337 232.349 28.9763 232.608 28.8789C232.782 28.7979 232.927 28.6641 233.024 28.4956C233.115 28.3009 233.158 28.0864 233.149 27.8709H236.997V28.1264C237.001 28.6102 236.921 29.0908 236.761 29.5462C236.579 30.0524 236.243 30.4854 235.803 30.7814C235.187 31.1973 234.498 31.4866 233.775 31.6333C232.634 31.8879 231.469 32.0023 230.302 31.974H228.482C227.335 31.9938 226.189 31.8843 225.065 31.6475ZM227.843 22.2911C227.372 22.2721 226.902 22.3394 226.454 22.4899C226.154 22.5846 225.885 22.7614 225.677 23.001C225.511 23.1775 225.4 23.3996 225.357 23.6399C225.316 23.8456 225.292 24.0547 225.288 24.2646H233.094C233.114 24.0427 233.114 23.8193 233.094 23.5973C233.031 23.3556 232.906 23.1351 232.733 22.9584C232.491 22.7329 232.201 22.5677 231.885 22.4757C231.398 22.3353 230.892 22.2731 230.385 22.2911H227.843Z" fill="white"/>
</svg>
